<?xml version="1.0" encoding="UTF-8" standalone="no"?><!DOCTYPE svg PUBLIC "-//W3C//DTD SVG 1.1//EN" "http://www.w3.org/Graphics/SVG/1.1/DTD/svg11.dtd"><svg width="1800px" height="500px" version="1.1" xmlns="http://www.w3.org/2000/svg" xmlns:xlink="http://www.w3.org/1999/xlink" xml:space="preserve" xmlns:serif="http://www.serif.com/" style="fill-rule:evenodd;clip-rule:evenodd;stroke-linejoin:round;stroke-miterlimit:2;"><g transform="matrix(23.091,0,0,23.091,-39017.3,-24058.3)"><path d="M1692.54,1058.64L1692.71,1058.82L1694.13,1058.82C1695.04,1058.82 1695.76,1058.78 1696.29,1058.72L1696.36,1058.62C1696.37,1058.39 1696.4,1057.36 1696.45,1055.54L1696.45,1053.92C1696.45,1053.54 1696.5,1052.97 1696.6,1052.2L1696.67,1052.2C1696.75,1052.31 1696.81,1052.46 1696.85,1052.64C1696.9,1052.82 1696.94,1052.98 1696.98,1053.14L1698.63,1058.05C1698.76,1058.43 1698.9,1058.66 1699.06,1058.72C1699.09,1058.73 1699.36,1058.75 1699.88,1058.78C1700.34,1058.8 1700.68,1058.82 1700.9,1058.82C1701.24,1058.82 1701.6,1058.79 1701.97,1058.73C1702.09,1058.64 1702.19,1058.47 1702.29,1058.21L1703.84,1053.66C1703.89,1053.58 1703.94,1053.45 1704.01,1053.29C1704.11,1052.92 1704.17,1052.7 1704.21,1052.63C1704.31,1052.36 1704.43,1052.18 1704.56,1052.11C1704.56,1052.23 1704.57,1052.41 1704.59,1052.67C1704.62,1052.93 1704.63,1053.12 1704.63,1053.25C1704.63,1053.4 1704.61,1053.51 1704.56,1053.58L1704.56,1054.37C1704.55,1054.72 1704.54,1054.98 1704.54,1055.15C1704.54,1056.42 1704.57,1057.55 1704.63,1058.54L1704.78,1058.72L1708.13,1058.72C1708.28,1058.72 1708.39,1058.66 1708.45,1058.54C1708.45,1057.96 1708.46,1057.09 1708.48,1055.93C1708.51,1054.76 1708.52,1053.89 1708.52,1053.31C1708.52,1053.27 1708.54,1053.2 1708.57,1053.1C1708.59,1053.01 1708.61,1052.93 1708.61,1052.89L1708.61,1048.33C1708.61,1047.88 1708.45,1047.65 1708.13,1047.65L1705.87,1047.65C1705.39,1047.65 1704.25,1047.68 1702.45,1047.74L1702.29,1047.83C1702.14,1048.09 1702.04,1048.32 1701.97,1048.51C1701.75,1049.21 1701.52,1049.9 1701.3,1050.6C1700.92,1051.72 1700.65,1052.29 1700.5,1052.29C1700.44,1052.17 1700.36,1051.99 1700.27,1051.76L1699.09,1048.17C1699,1047.89 1698.9,1047.74 1698.78,1047.74C1698.61,1047.74 1698.37,1047.73 1698.04,1047.7C1697.71,1047.66 1697.46,1047.65 1697.3,1047.65C1696.7,1047.65 1695.69,1047.67 1694.27,1047.72C1693.98,1047.71 1693.57,1047.72 1693.02,1047.75C1692.84,1047.76 1692.74,1047.82 1692.71,1047.91C1692.65,1048.07 1692.62,1048.44 1692.62,1049.02L1692.62,1053.4L1692.54,1053.58L1692.54,1058.64Z" style="fill:white;fill-rule:nonzero;"/></g><g transform="matrix(23.091,0,0,23.091,-39017.3,-24058.3)"><path d="M1712.23,1060.93C1713.77,1060.93 1714.91,1060.6 1715.64,1059.93C1716.24,1059.37 1716.85,1058.24 1717.45,1056.55C1717.73,1055.77 1718.08,1054.82 1718.5,1053.71C1719.26,1051.72 1719.63,1050.65 1719.63,1050.5C1719.63,1050.38 1719.61,1050.31 1719.56,1050.3C1719.43,1050.3 1719.22,1050.29 1718.95,1050.28L1718.35,1050.28C1716.87,1050.28 1716.1,1050.37 1716.04,1050.56L1714.8,1054.23C1714.76,1054.31 1714.71,1054.42 1714.64,1054.58L1714.61,1054.59C1714.46,1054.55 1714.14,1053.93 1713.66,1052.71C1713.13,1051.36 1712.81,1050.61 1712.7,1050.46C1712.39,1050.46 1711.93,1050.45 1711.3,1050.42C1710.68,1050.39 1710.21,1050.38 1709.89,1050.38C1709.51,1050.38 1709.37,1050.37 1709.46,1050.37C1709.27,1050.38 1709.15,1050.45 1709.11,1050.56C1709.18,1050.87 1709.33,1051.24 1709.54,1051.68C1709.85,1052.32 1710.02,1052.68 1710.06,1052.76C1710.09,1052.84 1710.16,1053.07 1710.28,1053.46C1710.28,1053.46 1710.57,1054.11 1711.14,1055.39C1711.34,1055.83 1711.54,1056.26 1711.74,1056.69C1711.98,1057.23 1712.14,1057.67 1712.23,1058.01C1712.15,1058.24 1711.88,1058.36 1711.4,1058.36C1711.23,1058.36 1710.99,1058.3 1710.67,1058.18C1710.36,1058.06 1710.12,1057.99 1709.94,1057.99C1709.8,1057.99 1709.67,1058.16 1709.54,1058.5C1709.48,1058.74 1709.41,1058.98 1709.34,1059.21C1709.19,1059.72 1709.11,1060.02 1709.11,1060.12L1709.11,1060.16C1709.24,1060.35 1709.73,1060.54 1710.58,1060.71C1711.29,1060.86 1711.84,1060.93 1712.23,1060.93Z" style="fill:white;fill-rule:nonzero;"/></g><g transform="matrix(23.091,0,0,23.091,-39017.3,-24058.3)"><path d="M1720.12,1056.35C1720.12,1057.41 1720.82,1058.15 1722.23,1058.58C1723.1,1058.85 1724.2,1058.98 1725.52,1058.98C1728.21,1058.98 1729.88,1058.38 1730.55,1057.17C1730.68,1056.93 1730.76,1056.66 1730.78,1056.35C1730.8,1056.22 1730.81,1055.92 1730.81,1055.45C1730.45,1054.57 1729.77,1053.95 1728.78,1053.62C1728.29,1053.45 1727.39,1053.31 1726.06,1053.18C1725.6,1053.15 1725.05,1053.08 1724.41,1052.97C1724.25,1052.91 1724.17,1052.81 1724.17,1052.67C1724.17,1052.51 1724.27,1052.4 1724.47,1052.37C1724.52,1052.36 1724.68,1052.35 1724.96,1052.35C1725.4,1052.35 1725.84,1052.45 1726.28,1052.63L1728.29,1052.63C1729.55,1052.63 1730.22,1052.59 1730.31,1052.52C1730.34,1052.5 1730.36,1052.46 1730.36,1052.39C1730.36,1051.62 1729.94,1051.03 1729.1,1050.64C1728.63,1050.42 1727.9,1050.24 1726.93,1050.09C1726.37,1050.01 1725.95,1049.97 1725.68,1049.97C1724.2,1049.97 1723.05,1050.1 1722.22,1050.37C1720.82,1050.82 1720.12,1051.66 1720.12,1052.89C1720.12,1053.73 1720.46,1054.38 1721.14,1054.82C1721.65,1055.15 1722.39,1055.39 1723.36,1055.52C1724.09,1055.59 1724.81,1055.66 1725.53,1055.73C1726.2,1055.81 1726.53,1055.96 1726.53,1056.18C1726.53,1056.5 1726.19,1056.66 1725.51,1056.66C1725.24,1056.66 1724.93,1056.56 1724.57,1056.36C1724.22,1056.16 1723.98,1056.06 1723.88,1056.06L1720.28,1056.06C1720.17,1056.06 1720.12,1056.15 1720.12,1056.35Z" style="fill:white;fill-rule:nonzero;"/></g><g transform="matrix(23.091,0,0,23.091,-39017.3,-24058.3)"><path d="M1734.55,1058.88C1734.86,1058.88 1735.19,1058.84 1735.54,1058.76C1736.04,1058.65 1736.3,1058.49 1736.3,1058.28L1736.3,1057.01C1736.3,1056.83 1736.21,1056.71 1736.02,1056.63C1735.82,1056.55 1735.7,1056.47 1735.67,1056.4C1735.61,1056.23 1735.57,1055.78 1735.57,1055.07C1735.57,1053.74 1735.58,1053.05 1735.6,1052.97C1735.63,1052.81 1735.84,1052.64 1736.22,1052.46L1736.22,1050.57C1736.22,1050.48 1736.13,1050.4 1735.95,1050.34C1735.74,1050.26 1735.62,1050.2 1735.6,1050.14C1735.6,1049.02 1735.55,1048.29 1735.46,1047.95C1735.44,1047.87 1735.3,1047.83 1735.05,1047.83C1734.98,1047.83 1734.49,1047.95 1733.6,1048.18C1732.65,1048.45 1732.13,1048.63 1732.03,1048.72C1731.99,1048.76 1731.97,1048.88 1731.96,1049.09C1731.95,1049.24 1731.95,1049.45 1731.96,1049.69C1731.97,1050 1731.97,1050.15 1731.97,1050.14C1731.97,1050.24 1731.86,1050.31 1731.64,1050.37C1731.42,1050.42 1731.31,1050.49 1731.31,1050.57L1731.31,1052.55C1731.31,1052.61 1731.41,1052.67 1731.61,1052.72C1731.81,1052.77 1731.91,1052.85 1731.93,1052.97C1731.93,1053.13 1731.94,1053.36 1731.94,1053.66L1731.99,1055.78C1731.99,1055.94 1732,1056.17 1732.01,1056.48C1732.03,1057.37 1732.27,1058 1732.7,1058.38C1733.1,1058.71 1733.72,1058.88 1734.55,1058.88Z" style="fill:white;fill-rule:nonzero;"/></g><g transform="matrix(23.091,0,0,23.091,-39017.3,-24058.3)"><path d="M1739.86,1058.82C1740.12,1058.82 1740.27,1058.75 1740.3,1058.62C1740.41,1058.21 1740.46,1057.26 1740.46,1055.76C1740.46,1055.38 1740.44,1053.65 1740.39,1050.57L1740.23,1050.39C1739.61,1050.34 1739.18,1050.31 1738.94,1050.31L1737.11,1050.31C1736.97,1050.31 1736.88,1050.47 1736.86,1050.79C1736.86,1051.01 1736.86,1051.22 1736.87,1051.43L1736.8,1058.03C1736.8,1058.33 1736.81,1058.51 1736.85,1058.6C1736.88,1058.68 1736.97,1058.72 1737.11,1058.72C1737.42,1058.72 1737.88,1058.74 1738.49,1058.77C1739.1,1058.8 1739.56,1058.82 1739.86,1058.82Z" style="fill:white;fill-rule:nonzero;"/></g><g transform="matrix(23.091,0,0,23.091,-39017.3,-24058.3)"><path d="M1740.95,1054.67C1740.95,1056.24 1741.5,1057.4 1742.61,1058.17C1743.53,1058.81 1744.75,1059.13 1746.26,1059.13C1747.53,1059.13 1748.5,1059.05 1749.19,1058.87C1750.28,1058.62 1751.12,1058.1 1751.71,1057.33C1752.24,1056.67 1752.5,1056.06 1752.5,1055.52C1752.5,1055.36 1752.47,1055.28 1752.42,1055.28L1748.68,1055.28C1748.66,1055.3 1748.63,1055.32 1748.6,1055.36C1748.18,1055.9 1747.91,1056.22 1747.78,1056.32C1747.5,1056.54 1747.11,1056.65 1746.61,1056.65C1746.3,1056.65 1746.06,1056.62 1745.91,1056.55C1745.75,1056.49 1745.57,1056.34 1745.35,1056.1C1745.27,1056.02 1745.16,1055.88 1745.03,1055.7C1744.9,1055.52 1744.84,1055.15 1744.84,1054.59C1744.84,1053.93 1745.01,1053.41 1745.34,1053.02C1745.67,1052.63 1746.13,1052.44 1746.72,1052.44C1747.09,1052.44 1747.41,1052.53 1747.68,1052.72C1747.74,1052.77 1747.93,1052.95 1748.26,1053.27C1748.46,1053.46 1748.65,1053.56 1748.83,1053.56L1752.19,1053.56C1752.35,1053.56 1752.42,1053.46 1752.42,1053.26C1752.42,1053.04 1752.29,1052.68 1752.03,1052.19C1751.22,1050.7 1749.43,1049.95 1746.67,1049.95C1745.03,1049.95 1743.72,1050.28 1742.75,1050.93C1741.55,1051.73 1740.95,1052.98 1740.95,1054.67Z" style="fill:white;fill-rule:nonzero;"/></g><g transform="matrix(23.091,0,0,23.091,-39017.3,-24058.3)"><path d="M1753,1056.13C1753,1057.2 1753.47,1057.98 1754.41,1058.49C1755.11,1058.86 1756.02,1059.05 1757.11,1059.05C1757.97,1059.05 1758.99,1058.79 1760.17,1058.28C1760.32,1058.22 1760.43,1058.18 1760.49,1058.18C1760.59,1058.18 1760.72,1058.27 1760.86,1058.45C1761.01,1058.62 1761.14,1058.71 1761.26,1058.71L1764.54,1058.71C1764.74,1058.71 1764.85,1058.24 1764.85,1057.32C1764.85,1056.96 1764.78,1056.75 1764.66,1056.68C1764.44,1056.56 1764.3,1056.43 1764.22,1056.31C1764.22,1055.98 1764.21,1055.46 1764.18,1054.77C1764.15,1054.07 1764.14,1053.55 1764.14,1053.2C1764.14,1051.87 1763.49,1050.96 1762.2,1050.47C1761.42,1050.18 1760.27,1050.04 1758.75,1050.04C1758.18,1050.04 1757.64,1050.06 1757.13,1050.1C1756.71,1050.14 1756.12,1050.25 1755.34,1050.43C1754.35,1050.67 1753.86,1050.89 1753.86,1051.08C1753.86,1051.17 1753.88,1051.26 1753.93,1051.34C1754.26,1051.9 1754.62,1052.47 1755.03,1053.05C1755.06,1053.06 1755.13,1053.07 1755.26,1053.07C1755.44,1053.07 1755.68,1053.02 1755.99,1052.93C1756.24,1052.86 1756.49,1052.78 1756.74,1052.71C1757.19,1052.59 1757.91,1052.53 1758.9,1052.53C1759.9,1052.53 1760.41,1052.67 1760.41,1052.96C1760.41,1052.99 1760.4,1053.03 1760.39,1053.07L1760.32,1053.14C1759.42,1053.15 1758.52,1053.2 1757.62,1053.29C1756.43,1053.4 1755.53,1053.52 1754.94,1053.64C1754.41,1053.76 1753.95,1054.06 1753.57,1054.54C1753.19,1055.02 1753,1055.55 1753,1056.13ZM1756.89,1055.83C1756.89,1055.34 1757.69,1055.1 1759.28,1055.1L1759.76,1055.1C1759.98,1055.1 1760.22,1055.13 1760.48,1055.19L1760.56,1055.36L1760.56,1055.41C1760.56,1055.82 1760.23,1056.13 1759.57,1056.35C1759.11,1056.49 1758.63,1056.57 1758.14,1056.57C1757.31,1056.57 1756.89,1056.32 1756.89,1055.83Z" style="fill:white;fill-rule:nonzero;"/></g><g transform="matrix(0.62758,0,0,0.62758,-240.089,-371.009)"><path d="M2177.63,693.313C2179.28,689.767 2182.84,687.5 2186.75,687.5C2190.66,687.5 2194.22,689.767 2195.87,693.313L2219.18,743.314C2219.9,744.862 2221,746.201 2222.38,747.205C2223.76,748.209 2225.38,748.845 2227.07,749.052L2281.83,755.765C2285.71,756.241 2288.97,758.924 2290.18,762.644C2291.39,766.365 2290.33,770.449 2287.47,773.117L2247.12,810.732C2245.87,811.896 2244.93,813.359 2244.41,814.984C2243.88,816.608 2243.77,818.34 2244.1,820.016L2254.64,874.166C2255.38,878.006 2253.84,881.931 2250.67,884.231C2247.51,886.53 2243.3,886.787 2239.88,884.89L2191.63,858.136C2190.14,857.307 2188.46,856.873 2186.75,856.873C2185.04,856.873 2183.36,857.307 2181.87,858.136L2133.62,884.89C2130.2,886.787 2125.99,886.53 2122.83,884.231C2119.66,881.931 2118.12,878.006 2118.87,874.166L2129.4,820.016C2129.73,818.34 2129.62,816.608 2129.09,814.984C2128.57,813.359 2127.63,811.896 2126.39,810.732L2086.03,773.117C2083.17,770.449 2082.11,766.365 2083.32,762.644C2084.53,758.924 2087.79,756.241 2091.67,755.765L2146.43,749.052C2148.12,748.845 2149.74,748.209 2151.12,747.205C2152.5,746.201 2153.6,744.862 2154.32,743.314L2177.63,693.313Z" style="fill:rgb(248,197,58);"/></g></svg>